Normalized EMG Linear Envelopes
nRows=184
nColumns=4

endheader
time	 med_gas_r	  soleus_r	 tib_ant_r	
2.74982	  0.220657	  0.274925	  0.014219	
2.81232	  0.222871	  0.272775	  0.012889	
2.87482	  0.230347	  0.272845	  0.012038	
2.93731	  0.230685	  0.272486	  0.011521	
2.99981	  0.237958	  0.280023	  0.011265	
3.0623	  0.242522	  0.277142	  0.011024	
3.1248	  0.243002	  0.286637	  0.010827	
3.1873	  0.243395	  0.298416	  0.010772	
3.24979	  0.234394	  0.294913	  0.010785	
3.31229	  0.231935	  0.292545	  0.010715	
3.37478	  0.230359	  0.281788	  0.010677	
3.43728	  0.226747	  0.278715	  0.010583	
3.49978	  0.226952	  0.273131	  0.010357	
3.56227	  0.226285	  0.269305	  0.010130	
3.62477	  0.234058	  0.271691	  0.010134	
3.68726	  0.239941	  0.267985	  0.010451	
3.74976	  0.242286	  0.274734	  0.010952	
3.81226	  0.240857	  0.276017	  0.011321	
3.87475	  0.232974	  0.282283	  0.011419	
3.93725	  0.230178	  0.289565	  0.011405	
3.99974	  0.228594	  0.286303	  0.011389	
4.06224	  0.230768	  0.288541	  0.011610	
4.12474	  0.236237	  0.281503	  0.011935	
4.18723	  0.235635	  0.280390	  0.012145	
4.24973	  0.237491	  0.276124	  0.012166	
4.31222	  0.239775	  0.277203	  0.012163	
4.37472	  0.246455	  0.286663	  0.011872	
4.43722	  0.249725	  0.286279	  0.011475	
4.49971	  0.247755	  0.289807	  0.011030	
4.56221	  0.240768	  0.284244	  0.010776	
4.6247	  0.225013	  0.283564	  0.010934	
4.6872	  0.215024	  0.276330	  0.011282	
4.7497	  0.209910	  0.274175	  0.011396	
4.81219	  0.214452	  0.276301	  0.011455	
4.87469	  0.221070	  0.274101	  0.011457	
4.93718	  0.222207	  0.283959	  0.011494	
4.99968	  0.222022	  0.287224	  0.011449	
5.06218	  0.217657	  0.291451	  0.011458	
5.12467	  0.218822	  0.286078	  0.011534	
5.18717	  0.220694	  0.282269	  0.011655	
5.24966	  0.224613	  0.282323	  0.011634	
5.31216	  0.230671	  0.282897	  0.011446	
5.37466	  0.235479	  0.291456	  0.011062	
5.43715	  0.245213	  0.296738	  0.010990	
5.49965	  0.253070	  0.315804	  0.011444	
5.56214	  0.263860	  0.343402	  0.012571	
5.62464	  0.271653	  0.384432	  0.014427	
5.68714	  0.281597	  0.420793	  0.016747	
5.74963	  0.286733	  0.431536	  0.018393	
5.81213	  0.289608	  0.405334	  0.018897	
5.87462	  0.292983	  0.372269	  0.019561	
5.93712	  0.308761	  0.355662	  0.020775	
5.99962	  0.329557	  0.354299	  0.021949	
6.06211	  0.342621	  0.363198	  0.024327	
6.12461	  0.342426	  0.370196	  0.027569	
6.1871	  0.329464	  0.375618	  0.032924	
6.2496	  0.314452	  0.376982	  0.040352	
6.3121	  0.298701	  0.377265	  0.049731	
6.37459	  0.291460	  0.380622	  0.061152	
6.43709	  0.295633	  0.375266	  0.070192	
6.49958	  0.317119	  0.378404	  0.075302	
6.56208	  0.343992	  0.388486	  0.081362	
6.62458	  0.373888	  0.404389	  0.088254	
6.68707	  0.392158	  0.411683	  0.091972	
6.74957	  0.412420	  0.416193	  0.096461	
6.81206	  0.429534	  0.418727	  0.101538	
6.87456	  0.448405	  0.427618	  0.106244	
6.93706	  0.452721	  0.449170	  0.112289	
6.99955	  0.448662	  0.480053	  0.120872	
7.06205	  0.442447	  0.508555	  0.139566	
7.12454	  0.438548	  0.520608	  0.169425	
7.18704	  0.436862	  0.536248	  0.205699	
7.24954	  0.443664	  0.562674	  0.238597	
7.31203	  0.453932	  0.601072	  0.262779	
7.37453	  0.492322	  0.623765	  0.281543	
7.43702	  0.553219	  0.632993	  0.301998	
7.49952	  0.608777	  0.625607	  0.327671	
7.56202	  0.622675	  0.614864	  0.358491	
7.62451	  0.632841	  0.613083	  0.386065	
7.68701	  0.672057	  0.621739	  0.406028	
7.7495	  0.690560	  0.634586	  0.424189	
7.812	  0.682471	  0.647411	  0.456239	
7.8745	  0.673749	  0.641449	  0.506008	
7.93699	  0.663678	  0.621251	  0.567200	
7.99949	  0.646993	  0.602053	  0.637379	
8.06198	  0.665726	  0.593289	  0.696686	
8.12448	  0.716130	  0.612596	  0.731540	
8.18698	  0.730658	  0.647058	  0.741089	
8.24947	  0.722231	  0.680755	  0.726280	
8.31197	  0.710163	  0.696135	  0.701743	
8.37446	  0.695222	  0.706460	  0.671249	
8.43696	  0.697547	  0.703684	  0.651489	
8.49946	  0.717248	  0.712320	  0.642936	
8.56195	  0.729799	  0.741683	  0.652179	
8.62445	  0.761218	  0.774850	  0.662274	
8.68694	  0.796438	  0.778046	  0.667023	
8.74944	  0.808979	  0.742689	  0.669861	
8.81194	  0.852235	  0.689840	  0.685483	
8.87443	  0.890838	  0.637849	  0.715453	
8.93693	  0.930957	  0.611674	  0.747080	
8.99942	  0.942582	  0.623900	  0.762287	
9.06192	  0.938242	  0.673441	  0.762620	
9.12442	  0.933871	  0.741681	  0.764712	
9.18691	  0.912788	  0.804271	  0.785851	
9.24941	  0.908659	  0.833997	  0.805719	
9.3119	  0.869913	  0.843559	  0.812877	
9.3744	  0.840534	  0.853437	  0.807432	
9.4369	  0.829918	  0.868281	  0.813213	
9.49939	  0.831382	  0.869321	  0.836369	
9.56189	  0.865438	  0.857402	  0.848070	
9.62438	  0.877282	  0.838398	  0.838126	
9.68688	  0.890317	  0.812571	  0.839229	
9.74938	  0.908885	  0.791242	  0.855454	
9.81187	  0.905817	  0.766197	  0.879690	
9.87437	  0.928962	  0.750660	  0.905863	
9.93686	  0.936655	  0.745450	  0.909844	
9.99936	  0.916119	  0.747631	  0.901652	
10.0619	  0.908662	  0.748296	  0.904814	
10.1244	  0.907708	  0.708973	  0.903631	
10.1868	  0.909041	  0.658466	  0.879044	
10.2493	  0.914980	  0.621768	  0.836989	
10.3118	  0.892688	  0.601495	  0.781224	
10.3743	  0.864715	  0.611438	  0.731710	
10.4368	  0.889282	  0.648453	  0.695906	
10.4993	  0.911585	  0.679537	  0.676087	
10.5618	  0.920184	  0.692290	  0.654302	
10.6243	  0.945806	  0.688090	  0.624096	
10.6868	  0.938441	  0.676714	  0.612470	
10.7493	  0.923472	  0.685840	  0.622787	
10.8118	  0.915134	  0.708824	  0.639094	
10.8743	  0.887564	  0.725130	  0.658361	
10.9368	  0.886237	  0.722350	  0.671255	
10.9993	  0.927668	  0.695003	  0.683819	
11.0618	  0.966574	  0.676067	  0.696707	
11.1243	  0.996253	  0.667714	  0.702075	
11.1868	  0.984980	  0.659703	  0.691425	
11.2493	  0.942001	  0.656406	  0.654710	
11.3118	  0.892692	  0.643925	  0.606334	
11.3743	  0.797148	  0.629698	  0.565950	
11.4368	  0.706531	  0.615809	  0.547421	
11.4993	  0.625726	  0.574724	  0.543605	
11.5618	  0.517205	  0.525998	  0.526474	
11.6243	  0.407177	  0.493351	  0.507715	
11.6868	  0.305312	  0.460826	  0.512776	
11.7492	  0.250409	  0.419881	  0.521100	
11.8117	  0.244334	  0.378478	  0.498478	
11.8742	  0.287353	  0.344779	  0.451693	
11.9367	  0.364104	  0.332168	  0.401426	
11.9992	  0.446704	  0.339303	  0.356781	
12.0617	  0.510196	  0.354056	  0.314529	
12.1242	  0.522110	  0.363583	  0.283039	
12.1867	  0.508457	  0.351593	  0.267097	
12.2492	  0.519530	  0.331127	  0.261338	
12.3117	  0.526923	  0.321945	  0.257545	
12.3742	  0.481078	  0.326628	  0.242123	
12.4367	  0.445640	  0.340724	  0.228491	
12.4992	  0.457801	  0.348483	  0.223397	
12.5617	  0.497215	  0.338716	  0.218906	
12.6242	  0.500033	  0.338159	  0.197991	
12.6867	  0.470552	  0.338566	  0.163239	
12.7492	  0.434233	  0.309887	  0.131627	
12.8117	  0.412613	  0.264970	  0.108975	
12.8742	  0.392744	  0.224497	  0.099932	
12.9367	  0.387773	  0.201530	  0.097990	
12.9992	  0.445379	  0.202784	  0.102195	
13.0617	  0.530100	  0.223556	  0.109802	
13.1242	  0.555282	  0.256581	  0.113028	
13.1867	  0.509324	  0.284581	  0.113857	
13.2492	  0.489812	  0.293795	  0.115010	
13.3116	  0.526320	  0.308743	  0.110628	
13.3741	  0.558429	  0.330852	  0.105604	
13.4366	  0.536449	  0.332419	  0.096963	
13.4991	  0.503242	  0.326514	  0.086633	
13.5616	  0.488906	  0.320171	  0.082962	
13.6241	  0.472726	  0.300483	  0.081333	
13.6866	  0.440029	  0.277472	  0.081108	
13.7491	  0.420447	  0.272760	  0.081631	
13.8116	  0.425209	  0.289671	  0.082022	
13.8741	  0.463865	  0.301453	  0.074273	
13.9366	  0.480190	  0.282954	  0.061304	
13.9991	  0.429309	  0.265824	  0.051504	
14.0616	  0.373970	  0.268343	  0.048233	
14.1241	  0.374940	  0.289937	  0.047233	
14.1866	  0.407937	  0.306956	  0.047548	
